<svg width="25" height="24" viewBox="0 0 25 24" fill="none" xmlns="http://www.w3.org/2000/svg">
<path d="M0 8.86586V21.3381C0 22.0441 0.280435 22.7211 0.779612 23.2203C1.27879 23.7195 1.95582 23.9999 2.66176 23.9999H21.9786C22.6845 23.9999 23.3615 23.7195 23.8607 23.2203C24.3599 22.7211 24.6403 22.0441 24.6403 21.3381V11.8699C24.6403 11.5673 24.5201 11.2772 24.3062 11.0632C24.0923 10.8493 23.8021 10.7291 23.4996 10.7291C23.197 10.7291 22.9069 10.8493 22.6929 11.0632C22.479 11.2772 22.3588 11.5673 22.3588 11.8699V21.3381C22.3588 21.439 22.3187 21.5357 22.2474 21.607C22.1761 21.6783 22.0794 21.7184 21.9786 21.7184H2.66176C2.56091 21.7184 2.46419 21.6783 2.39288 21.607C2.32157 21.5357 2.28151 21.439 2.28151 21.3381V8.86586C2.28151 8.76501 2.32157 8.6683 2.39288 8.59699C2.46419 8.52568 2.56091 8.48561 2.66176 8.48561H7.94726C8.24981 8.48561 8.53996 8.36543 8.7539 8.15149C8.96783 7.93756 9.08802 7.6474 9.08802 7.34486C9.08802 7.04231 8.96783 6.75215 8.7539 6.53822C8.53996 6.32429 8.24981 6.2041 7.94726 6.2041H2.66176C1.95582 6.2041 1.27879 6.48454 0.779612 6.98371C0.280435 7.48289 0 8.15992 0 8.86586Z" fill="#8F9092"/>
<path d="M24.5604 5.39047L20.815 0.451003C20.6319 0.209974 20.3606 0.05153 20.0608 0.0105261C19.7609 -0.0304777 19.457 0.0493178 19.216 0.232359C18.975 0.4154 18.8165 0.686692 18.7755 0.986555C18.7345 1.28642 18.8143 1.59029 18.9973 1.83132L21.2332 4.77447C17.6625 4.86395 14.24 6.22046 11.5775 8.6015C8.91506 10.9825 7.1862 14.2329 6.7 17.7715C6.67966 17.92 6.6888 18.0712 6.72692 18.2162C6.76503 18.3613 6.83137 18.4974 6.92214 18.6167C7.0129 18.7361 7.12632 18.8364 7.25589 18.9119C7.38546 18.9874 7.52864 19.0366 7.67725 19.0567H7.83316C8.11053 19.0593 8.37936 18.9608 8.58932 18.7795C8.79929 18.5982 8.93601 18.3467 8.97391 18.0719C9.36858 15.2284 10.7102 12.6009 12.7822 10.6138C14.8541 8.62674 17.5353 7.39609 20.3929 7.12062L18.0201 8.92301C17.7791 9.10605 17.6206 9.37735 17.5796 9.67721C17.5386 9.97707 17.6184 10.2809 17.8015 10.522C17.9845 10.763 18.2558 10.9214 18.5557 10.9624C18.8555 11.0035 19.1594 10.9237 19.4004 10.7406L24.3437 6.99133C24.4632 6.90058 24.5636 6.78713 24.6392 6.6575C24.7148 6.52787 24.7641 6.38459 24.7842 6.23588C24.8044 6.08717 24.795 5.93595 24.7566 5.79088C24.7182 5.64581 24.6515 5.50974 24.5604 5.39047Z" fill="#8F9092"/>
</svg>
