<svg width="26" height="24" viewBox="0 0 26 24" fill="none" xmlns="http://www.w3.org/2000/svg">
<path d="M22.7721 4.77209H21.3209V1.47907V1.25581V0H3.76744V1.22791V1.45116V4.74419H2.31628C1.03256 4.74419 0 5.77674 0 7.06047V15.8233C0 17.107 1.03256 18.1395 2.31628 18.1395H2.90233V24H17.2744L22.1581 19.1163V18.1674H22.7442C24.0279 18.1674 25.0605 17.1349 25.0605 15.8512V7.08837C25.0884 5.80465 24.0558 4.77209 22.7721 4.77209ZM5.2186 1.47907H19.8419V4.77209H5.2186V1.47907ZM4.63256 22.2977V15.2651H20.4558V18.4186L20.4 18.4744H16.5488V22.2977H15.4605H4.63256ZM23.386 15.8512C23.386 16.186 23.107 16.4372 22.8 16.4372H22.214V13.5349H2.90233V16.4651H2.31628C1.9814 16.4651 1.73023 16.186 1.73023 15.8791V7.08837C1.73023 6.75349 2.0093 6.50233 2.31628 6.50233H22.7721C23.107 6.50233 23.3581 6.7814 23.3581 7.08837V15.8512H23.386ZM18.3907 9.26512C18.3907 9.65581 18.0558 9.9907 17.6651 9.9907C17.2744 9.9907 16.9395 9.65581 16.9395 9.26512C16.9395 8.87442 17.2744 8.53954 17.6651 8.53954C18.0558 8.53954 18.3907 8.87442 18.3907 9.26512ZM21.3209 9.26512C21.3209 9.65581 20.986 9.9907 20.5954 9.9907C20.2047 9.9907 19.8698 9.65581 19.8698 9.26512C19.8698 8.87442 20.2047 8.53954 20.5954 8.53954C20.986 8.53954 21.3209 8.87442 21.3209 9.26512Z" fill="#8F9092"/>
</svg>
