<svg width="59" height="15" viewBox="0 0 59 15" fill="none" xmlns="http://www.w3.org/2000/svg">
<path d="M14.8 7.3998C14.8 3.2998 11.5 -0.000195503 7.4 -0.000195503C3.3 -0.000195503 0 3.2998 0 7.3998C0 11.4998 3.3 14.7998 7.4 14.7998C11.4 14.7998 14.8 11.4998 14.8 7.3998Z" fill="#CABAA0"/>
<path d="M36.7004 7.3998C36.7004 3.2998 33.4004 -0.000195503 29.3004 -0.000195503C25.2004 -0.000195503 21.9004 3.2998 21.9004 7.3998C21.9004 11.4998 25.2004 14.7998 29.3004 14.7998C33.4004 14.7998 36.7004 11.4998 36.7004 7.3998Z" fill="#CABAA0"/>
<path d="M58.6008 7.3998C58.6008 3.2998 55.3008 -0.000195503 51.2008 -0.000195503C47.1008 -0.000195503 43.8008 3.2998 43.8008 7.3998C43.8008 11.4998 47.1008 14.7998 51.2008 14.7998C55.3008 14.7998 58.6008 11.4998 58.6008 7.3998Z" fill="#CABAA0"/>
</svg>
