<?xml-stylesheet type="text/css" href="../css/main.min.css"?>
<svg width="16" height="59" viewBox="0 0 16 59" xmlns="http://www.w3.org/2000/svg">
<style>
  
</style>
<path d="M8.30015 14.8996C12.4001 14.8996 15.7001 11.5996 15.7001 7.49961C15.7001 3.39961 12.4001 0.0996099 8.30015 0.0996097C4.20015 0.0996095 0.900146 3.39961 0.900146 7.49961C0.900146 11.4996 4.20015 14.8996 8.30015 14.8996Z"/>
<path d="M8.30015 36.8C12.4001 36.8 15.7001 33.5 15.7001 29.4C15.7001 25.3 12.4001 22 8.30015 22C4.20015 22 0.900146 25.3 0.900146 29.4C0.900146 33.5 4.20015 36.8 8.30015 36.8Z"/>
<path d="M8.30015 58.6994C12.4001 58.6994 15.7001 55.3994 15.7001 51.2994C15.7001 47.1994 12.4001 43.8994 8.30015 43.8994C4.20015 43.8994 0.900146 47.1994 0.900146 51.2994C0.900146 55.3994 4.20015 58.6994 8.30015 58.6994Z"/>
</svg>
