<svg width="16" height="11" viewBox="0 0 16 11" fill="none" xmlns="http://www.w3.org/2000/svg">
<path d="M16 0.267578H0V10.7682H16V0.267578Z" fill="#F0F0F0"/>
<path d="M9 0.267578H7V4.5334H0V6.50225H7V10.7681H9V6.50225H16V4.5334H9V0.267578Z" fill="#D80027"/>
<path d="M12.306 7.34375L16.0002 9.36417V7.34375H12.306Z" fill="#0052B4"/>
<path d="M9.73926 7.34375L16.0001 10.7678V9.79959L11.5097 7.34375H9.73926Z" fill="#0052B4"/>
<path d="M14.3324 10.7681L9.73926 8.25586V10.7681H14.3324Z" fill="#0052B4"/>
<path d="M9.73926 7.34375L16.0001 10.7678V9.79959L11.5097 7.34375H9.73926Z" fill="#F0F0F0"/>
<path d="M9.73926 7.34375L16.0001 10.7678V9.79959L11.5097 7.34375H9.73926Z" fill="#D80027"/>
<path d="M2.82312 7.34375L0 8.88776V7.34375H2.82312Z" fill="#0052B4"/>
<path d="M6.26086 7.7793V10.768H0.796631L6.26086 7.7793Z" fill="#0052B4"/>
<path d="M4.4904 7.34375L0 9.79959V10.7678L6.26086 7.34375H4.4904Z" fill="#D80027"/>
<path d="M3.69421 3.69131L0 1.6709V3.69131H3.69421Z" fill="#0052B4"/>
<path d="M6.26086 3.69166L0 0.267578V1.23582L4.4904 3.69166H6.26086Z" fill="#0052B4"/>
<path d="M1.66772 0.267578L6.26086 2.77983V0.267578H1.66772Z" fill="#0052B4"/>
<path d="M6.26086 3.69166L0 0.267578V1.23582L4.4904 3.69166H6.26086Z" fill="#F0F0F0"/>
<path d="M6.26086 3.69166L0 0.267578V1.23582L4.4904 3.69166H6.26086Z" fill="#D80027"/>
<path d="M13.177 3.69147L16.0001 2.14746V3.69147H13.177Z" fill="#0052B4"/>
<path d="M9.73926 3.25626V0.267578H15.2035L9.73926 3.25626Z" fill="#0052B4"/>
<path d="M11.5097 3.69166L16.0001 1.23582V0.267578L9.73926 3.69166H11.5097Z" fill="#D80027"/>
</svg>
