<svg width="22" height="23" viewBox="0 0 22 23" fill="none" xmlns="http://www.w3.org/2000/svg">
<path d="M16.3846 19.1856V2.65385C16.3837 2.3481 16.2619 2.05513 16.0457 1.83893C15.8295 1.62274 15.5365 1.50089 15.2308 1.5H2.15385C1.8481 1.50089 1.55513 1.62274 1.33893 1.83893C1.12274 2.05513 1.00089 2.3481 1 2.65385V19.5769C1.00152 20.0865 1.20462 20.5747 1.56494 20.9351C1.92525 21.2954 2.41351 21.4985 2.92308 21.5H18.6923" stroke="#005C96" stroke-width="1.5" stroke-linejoin="round"/>
<path d="M18.6923 21.4995C18.0802 21.4995 17.4933 21.2564 17.0605 20.8236C16.6277 20.3909 16.3846 19.8039 16.3846 19.1919V5.3457H19.8461C20.1521 5.3457 20.4456 5.46727 20.662 5.68366C20.8784 5.90004 21 6.19353 21 6.49955V19.1919C21 19.8039 20.7568 20.3909 20.3241 20.8236C19.8913 21.2564 19.3043 21.4995 18.6923 21.4995Z" stroke="#005C96" stroke-width="1.5" stroke-linejoin="round"/>
<path d="M10.2308 5.3457H13.3077" stroke="#005C96" stroke-width="1.5" stroke-linecap="round" stroke-linejoin="round"/>
<path d="M10.2308 8.42285H13.3077" stroke="#005C96" stroke-width="1.5" stroke-linecap="round" stroke-linejoin="round"/>
<path d="M4.07693 11.5H13.3077" stroke="#005C96" stroke-width="1.5" stroke-linecap="round" stroke-linejoin="round"/>
<path d="M4.07693 14.5771H13.3077" stroke="#005C96" stroke-width="1.5" stroke-linecap="round" stroke-linejoin="round"/>
<path d="M4.07693 17.6543H13.3077" stroke="#005C96" stroke-width="1.5" stroke-linecap="round" stroke-linejoin="round"/>
<path d="M7.15386 9.19253H4.07694C3.87293 9.19253 3.67727 9.11149 3.53301 8.96723C3.38875 8.82297 3.30771 8.62732 3.30771 8.4233V5.34638C3.30771 5.14237 3.38875 4.94671 3.53301 4.80245C3.67727 4.65819 3.87293 4.57715 4.07694 4.57715H7.15386C7.35788 4.57715 7.55353 4.65819 7.69779 4.80245C7.84205 4.94671 7.92309 5.14237 7.92309 5.34638V8.4233C7.92309 8.62732 7.84205 8.82297 7.69779 8.96723C7.55353 9.11149 7.35788 9.19253 7.15386 9.19253Z" fill="#005C96"/>
</svg>
