<svg width="22" height="23" viewBox="0 0 22 23" fill="none" xmlns="http://www.w3.org/2000/svg">
<path d="M20.8941 1.77098C20.8859 1.7315 20.8666 1.69516 20.8385 1.66627C20.8104 1.63737 20.7747 1.61711 20.7354 1.60786C18.121 0.967899 12.0816 3.2482 8.80611 6.52406C8.22235 7.10352 7.69005 7.7327 7.21524 8.4045C6.20563 8.31308 5.19601 8.39006 4.3364 8.76538C1.90899 9.8336 1.20274 12.6235 1.00563 13.8211C0.994948 13.8867 0.99951 13.9539 1.01896 14.0175C1.03841 14.0811 1.07222 14.1393 1.11778 14.1877C1.16334 14.2361 1.21942 14.2734 1.28168 14.2966C1.34394 14.3198 1.41069 14.3283 1.47678 14.3215L5.37438 13.8933C5.37707 14.1875 5.39473 14.4814 5.42726 14.7738C5.4476 14.976 5.53771 15.1647 5.68207 15.3075L7.1912 16.8179C7.33401 16.9625 7.52274 17.0527 7.72486 17.0729C8.01528 17.1053 8.30717 17.123 8.59938 17.1258L8.17197 21.0234C8.1653 21.0894 8.17389 21.1562 8.19709 21.2184C8.22028 21.2806 8.25746 21.3366 8.30574 21.3821C8.35402 21.4277 8.41212 21.4615 8.47554 21.4809C8.53896 21.5004 8.606 21.505 8.67149 21.4945C9.86861 21.302 12.6619 20.5951 13.7229 18.1662C14.0979 17.3048 14.1749 16.2997 14.0883 15.294C14.7615 14.8192 15.392 14.2865 15.9725 13.7018C19.26 10.4298 21.5239 4.51803 20.8941 1.77098ZM13.0503 9.46309C12.7632 9.17576 12.5676 8.80966 12.4884 8.41109C12.4091 8.01252 12.4498 7.59938 12.6051 7.22392C12.7605 6.84846 13.0236 6.52754 13.3612 6.30175C13.6988 6.07597 14.0957 5.95545 14.5018 5.95545C14.9078 5.95545 15.3047 6.07597 15.6424 6.30175C15.98 6.52754 16.2431 6.84846 16.3984 7.22392C16.5538 7.59938 16.5944 8.01252 16.5152 8.41109C16.4359 8.80966 16.2404 9.17576 15.9532 9.46309C15.7628 9.65412 15.5365 9.80567 15.2875 9.90908C15.0384 10.0125 14.7714 10.0657 14.5018 10.0657C14.2321 10.0657 13.9652 10.0125 13.7161 9.90908C13.467 9.80567 13.2408 9.65412 13.0503 9.46309V9.46309Z" stroke="#ADD7CD" stroke-width="1.5" stroke-linecap="round" stroke-linejoin="round"/>
<path d="M3.96279 16.1191C3.48351 16.178 3.03764 16.3955 2.69596 16.737C1.84884 17.5877 1.76855 20.7384 1.76855 20.7384C1.76855 20.7384 4.91855 20.6581 5.76615 19.8093C6.10874 19.4679 6.32638 19.0209 6.38394 18.5404" stroke="#ADD7CD" stroke-width="1.5" stroke-linecap="round" stroke-linejoin="round"/>
</svg>
