<svg width="111" height="68" viewBox="0 0 111 68" fill="none" xmlns="http://www.w3.org/2000/svg">
<rect width="111" height="68" fill="#E5E5E5"/>
<g clip-path="url(#clip0)">
<rect x="-148" y="-20" width="1920" height="3287" fill="white"/>
<rect x="-148" y="-20" width="1920" height="108.287" fill="white"/>
<g style="mix-blend-mode:multiply">
<path d="M8.39232 64.047C8.39232 66.1386 6.69261 67.8118 4.56797 67.8118C2.44333 67.8118 0.743622 66.1386 0.743622 64.047C0.743622 61.9555 2.44333 60.2822 4.56797 60.2822C6.69261 60.2822 8.39232 61.9555 8.39232 64.047Z" fill="#292929"/>
<path d="M19.6529 64.047C19.6529 66.1386 17.9532 67.8118 15.8285 67.8118C13.7039 67.8118 12.0042 66.1386 12.0042 64.047C12.0042 61.9555 13.7039 60.2822 15.8285 60.2822C17.9532 60.2822 19.6529 61.9555 19.6529 64.047Z" fill="#292929"/>
<path d="M30.9135 64.047C30.9135 66.1386 29.2137 67.8118 27.0891 67.8118C24.9645 67.8118 23.2648 66.1386 23.2648 64.047C23.2648 61.9555 24.9645 60.2822 27.0891 60.2822C29.2137 60.2822 30.9135 61.9555 30.9135 64.047Z" fill="#292929"/>
<path d="M15.1911 5.58781L12.9603 7.88851C12.3229 7.36563 11.6855 7.05189 11.1543 6.84274C10.5169 6.63359 9.87956 6.52901 9.13593 6.52901C7.75492 6.52901 6.6926 7.05189 5.84275 8.09767C4.99289 9.14344 4.56797 10.8167 4.56797 13.0128C4.56797 15.4181 4.88666 17.0913 5.52405 18.0325C6.16144 18.9737 7.11753 19.4966 8.49854 19.4966C9.45463 19.4966 10.3045 19.2874 11.0481 18.8691V14.686H8.60478L8.17985 11.6533H15.2974V20.7515C14.3413 21.379 13.279 21.9019 12.1104 22.2156C10.9419 22.5293 9.77333 22.7385 8.60478 22.7385C5.73652 22.7385 3.61188 21.9019 2.12464 20.2286C0.637391 18.5554 0 16.1501 0 13.0128C0 11.0258 0.424927 9.24802 1.16855 7.78394C1.91217 6.31985 2.97449 5.27408 4.3555 4.43746C5.73652 3.70542 7.22376 3.28711 8.92347 3.28711C11.3668 3.39169 13.4914 4.12373 15.1911 5.58781Z" fill="#292929"/>
<path d="M29.8511 19.2878C29.9574 19.4969 30.2761 19.7061 30.5948 19.8107L29.7449 22.6343C28.895 22.5297 28.1514 22.3205 27.6203 22.1114C27.0891 21.7976 26.6642 21.2747 26.3455 20.6473C25.3894 22.1114 24.0084 22.7388 21.99 22.7388C20.609 22.7388 19.4404 22.3205 18.5906 21.4839C17.7407 20.6473 17.3158 19.6015 17.3158 18.242C17.3158 16.6733 17.8469 15.523 19.0155 14.6864C20.184 13.8498 21.8837 13.4314 24.0084 13.4314H25.4956V12.804C25.4956 11.9674 25.2832 11.4445 24.9645 11.1307C24.6458 10.817 24.0084 10.7124 23.0523 10.7124C22.6274 10.7124 21.99 10.817 21.3526 10.9216C20.7152 11.0262 19.9716 11.2353 19.3342 11.4445L18.3781 8.72546C19.228 8.41173 20.184 8.098 21.1401 7.99342C22.0962 7.78427 22.9461 7.67969 23.7959 7.67969C25.8143 7.67969 27.3016 8.098 28.2577 8.93462C29.2137 9.77124 29.6387 11.0262 29.6387 12.6994V18.1374C29.6387 18.6603 29.7449 19.0786 29.8511 19.2878ZM25.4956 18.3466V15.8367H24.4333C23.4772 15.8367 22.7336 16.0459 22.3087 16.3596C21.8837 16.6733 21.5651 17.1962 21.5651 17.9283C21.5651 18.4512 21.6713 18.974 21.99 19.2878C22.3087 19.6015 22.7336 19.7061 23.2648 19.7061C24.1146 19.7061 24.9645 19.2878 25.4956 18.3466Z" fill="#292929"/>
<path d="M46.1046 8.93437C45.1485 9.35268 43.7675 9.45725 41.9616 9.45725C42.9177 9.87556 43.555 10.2939 43.98 10.9213C44.4049 11.4442 44.6174 12.1763 44.6174 13.1175C44.6174 14.0587 44.4049 14.7907 43.8737 15.5227C43.3426 16.2548 42.7052 16.7777 41.7491 17.196C40.793 17.6143 39.7307 17.8234 38.5621 17.8234C38.031 17.8234 37.3936 17.7189 36.8624 17.6143C36.7562 17.7189 36.65 17.8234 36.5437 17.928C36.4375 18.0326 36.4375 18.2418 36.4375 18.3463C36.4375 18.6601 36.5437 18.8692 36.7562 18.9738C36.9687 19.0784 37.3936 19.183 38.031 19.183H40.1556C41.2179 19.183 42.174 19.3921 43.0239 19.7058C43.8737 20.0196 44.5111 20.5425 44.9361 21.1699C45.361 21.7974 45.5735 22.5294 45.5735 23.2615C45.5735 24.7256 44.9361 25.8759 43.6613 26.7125C42.3865 27.5491 40.4743 27.9675 38.031 27.9675C36.3313 27.9675 34.9503 27.7583 33.8879 27.4446C32.8256 27.1308 32.1882 26.6079 31.7633 25.8759C31.3384 25.2484 31.1259 24.4118 31.1259 23.366H34.9503C34.9503 23.7844 35.0565 24.0981 35.1627 24.4118C35.3752 24.621 35.6939 24.8301 36.1188 24.9347C36.5437 25.0393 37.1811 25.1439 38.031 25.1439C39.1995 25.1439 40.0494 25.0393 40.4743 24.7256C40.8992 24.4118 41.1117 24.0981 41.1117 23.5752C41.1117 23.1569 40.8993 22.8432 40.5806 22.5294C40.2619 22.3203 39.7307 22.1111 39.0933 22.1111H36.9687C35.4814 22.1111 34.4191 21.7974 33.6755 21.2745C32.9319 20.7516 32.6132 20.1241 32.6132 19.2875C32.6132 18.7646 32.7194 18.2418 33.0381 17.8234C33.3568 17.3006 33.7817 16.8822 34.3129 16.5685C33.463 16.0456 32.7194 15.5227 32.4007 14.8953C31.9758 14.2678 31.7633 13.4312 31.7633 12.49C31.7633 10.9213 32.2945 9.66641 33.463 8.72521C34.6316 7.78402 36.1188 7.36571 38.031 7.36571C39.5182 7.36571 40.6868 7.26113 41.6429 6.9474C42.599 6.63366 43.6613 6.11078 44.7236 5.58789L46.1046 8.93437ZM36.8624 11.0259C36.4375 11.4442 36.3313 11.9671 36.3313 12.6992C36.3313 13.4312 36.5437 14.0587 36.8624 14.477C37.2874 14.8953 37.8185 15.1044 38.4559 15.1044C39.1995 15.1044 39.7307 14.8953 40.0494 14.477C40.3681 14.0587 40.5806 13.4312 40.5806 12.5946C40.5806 11.0259 39.8369 10.2939 38.4559 10.2939C37.8185 10.3985 37.2874 10.6076 36.8624 11.0259Z" fill="#292929"/>
<path d="M59.3836 19.2878C59.4898 19.4969 59.8085 19.7061 60.1272 19.8107L59.2773 22.6343C58.4275 22.5297 57.6839 22.3205 57.1527 22.1114C56.6215 21.7976 56.1966 21.2747 55.8779 20.6473C54.9218 22.1114 53.5408 22.7388 51.5224 22.7388C50.1414 22.7388 48.9729 22.3205 48.123 21.4839C47.2731 20.6473 46.8482 19.6015 46.8482 18.242C46.8482 16.6733 47.3794 15.523 48.5479 14.6864C49.7165 13.8498 51.4162 13.4314 53.5408 13.4314H55.0281V12.804C55.0281 11.9674 54.8156 11.4445 54.4969 11.1307C54.1782 10.817 53.5408 10.7124 52.5847 10.7124C52.1598 10.7124 51.5224 10.817 50.885 10.9216C50.2476 11.0262 49.504 11.2353 48.8666 11.4445L47.8043 8.72546C48.6542 8.41173 49.6102 8.098 50.5663 7.99342C51.5224 7.78427 52.3723 7.67969 53.2221 7.67969C55.2405 7.67969 56.7278 8.098 57.6839 8.93462C58.64 9.77124 59.0649 11.0262 59.0649 12.6994V18.1374C59.1711 18.6603 59.2773 19.0786 59.3836 19.2878ZM55.0281 18.3466V15.8367H53.9658C53.0097 15.8367 52.266 16.0459 51.8411 16.3596C51.4162 16.6733 51.0975 17.1962 51.0975 17.9283C51.0975 18.4512 51.2037 18.974 51.5224 19.2878C51.8411 19.6015 52.266 19.7061 52.7972 19.7061C53.6471 19.7061 54.3907 19.2878 55.0281 18.3466Z" fill="#292929"/>
<path d="M74.4685 22.2156H70.7504L70.5379 20.4378C69.4756 21.9019 68.0946 22.6339 66.1824 22.6339C64.9076 22.6339 63.8453 22.2156 63.2079 21.4836C62.5705 20.7515 62.1456 19.6012 62.1456 18.2417V8.09766H66.3949V17.7188C66.3949 18.4508 66.5011 18.8691 66.7136 19.1829C66.926 19.4966 67.2447 19.6012 67.7759 19.6012C68.6257 19.6012 69.4756 19.0783 70.113 17.9279V8.09766H74.3622V22.2156H74.4685Z" fill="#292929"/>
<path d="M88.0661 8.09766V11.0258L81.586 19.0783H88.1724L87.8537 22.2156H76.6993V19.2874L83.1795 11.235H77.2305V8.09766H88.0661Z" fill="#292929"/>
<path d="M94.3338 1.30032C94.7588 1.71863 95.0775 2.34609 95.0775 2.97355C95.0775 3.7056 94.865 4.22848 94.3338 4.64679C93.9089 5.0651 93.2715 5.27426 92.5279 5.27426C91.7843 5.27426 91.1469 5.0651 90.7219 4.64679C90.297 4.22848 89.9783 3.60102 89.9783 2.97355C89.9783 2.24151 90.1908 1.71863 90.7219 1.30032C91.1469 0.882006 91.7843 0.672852 92.5279 0.672852C93.2715 0.672852 93.9089 0.882006 94.3338 1.30032ZM94.6525 22.2158H90.4032V8.09785H94.6525V22.2158Z" fill="#292929"/>
<path d="M109.525 19.2878C109.631 19.4969 109.95 19.7061 110.269 19.8107L109.419 22.6343C108.569 22.5297 107.825 22.3205 107.294 22.1114C106.763 21.7976 106.338 21.2747 106.019 20.6473C105.063 22.1114 103.682 22.7388 101.664 22.7388C100.283 22.7388 99.1143 22.3205 98.2644 21.4839C97.4145 20.6473 96.9896 19.6015 96.9896 18.242C96.9896 16.6733 97.5208 15.523 98.6893 14.6864C99.8579 13.8498 101.558 13.4314 103.682 13.4314H105.169V12.804C105.169 11.9674 104.957 11.4445 104.638 11.1307C104.32 10.817 103.682 10.7124 102.726 10.7124C102.301 10.7124 101.664 10.817 101.026 10.9216C100.389 11.0262 99.6454 11.2353 99.008 11.4445L98.0519 8.72546C98.9018 8.41173 99.8579 8.098 100.814 7.99342C101.77 7.78427 102.62 7.67969 103.47 7.67969C105.488 7.67969 106.975 8.098 107.932 8.93462C108.888 9.77124 109.313 11.0262 109.313 12.6994V18.1374C109.313 18.6603 109.419 19.0786 109.525 19.2878ZM105.169 18.3466V15.8367H104.107C103.151 15.8367 102.407 16.0459 101.983 16.3596C101.558 16.6733 101.239 17.1962 101.239 17.9283C101.239 18.4512 101.345 18.974 101.664 19.2878C101.983 19.6015 102.407 19.7061 102.939 19.7061C103.788 19.7061 104.532 19.2878 105.169 18.3466Z" fill="#292929"/>
<path d="M13.1727 33.4058C14.9787 34.6608 15.8285 37.066 15.8285 40.6217C15.8285 44.0727 14.9787 46.478 13.279 47.8375C11.5793 49.197 9.3484 49.9291 6.58637 49.9291H0.849854V31.5234H6.05521C9.0297 31.5234 11.3668 32.1509 13.1727 33.4058ZM5.31159 34.6608V46.6872H6.79883C8.28608 46.6872 9.3484 46.2688 10.092 45.3277C10.8356 44.3865 11.2606 42.8178 11.2606 40.5171C11.2606 38.9484 11.0481 37.6935 10.7294 36.8569C10.3045 36.0203 9.87956 35.3928 9.24216 35.0791C8.60477 34.7653 7.75492 34.5562 6.79883 34.5562H5.31159V34.6608Z" fill="#292929"/>
<path d="M22.3087 29.013C22.7336 29.4313 23.0523 30.0587 23.0523 30.6862C23.0523 31.4182 22.8398 31.9411 22.3087 32.3594C21.8838 32.7778 21.2464 32.9869 20.5027 32.9869C19.7591 32.9869 19.1217 32.7778 18.6968 32.3594C18.2719 31.9411 17.9532 31.3137 17.9532 30.6862C17.9532 29.9542 18.1656 29.4313 18.6968 29.013C19.1217 28.5947 19.7591 28.3855 20.5027 28.3855C21.1401 28.2809 21.7775 28.5947 22.3087 29.013ZM22.6274 49.9284H18.3781V35.8105H22.6274V49.9284Z" fill="#292929"/>
<path d="M37.4998 47.0007C37.6061 47.2099 37.9248 47.4191 38.2435 47.5236L37.3936 50.2427C36.5437 50.1381 35.8001 49.9289 35.269 49.7198C34.7378 49.406 34.3129 48.8831 33.9942 48.2557C33.0381 49.7198 31.6571 50.3472 29.6387 50.3472C28.2577 50.3472 27.0891 49.9289 26.2393 49.0923C25.3894 48.2557 24.9645 47.2099 24.9645 45.8504C24.9645 44.2817 25.4956 43.1314 26.6642 42.2948C27.8327 41.4582 29.5324 41.0398 31.6571 41.0398H33.1443V40.4124C33.1443 39.5758 32.9319 39.0529 32.6132 38.7391C32.2945 38.4254 31.6571 38.3208 30.701 38.3208C30.2761 38.3208 29.6387 38.4254 29.0013 38.53C28.3639 38.6346 27.6203 38.8437 26.9829 39.0529L26.0268 36.3339C26.8767 36.0201 27.8327 35.7064 28.7888 35.6018C29.7449 35.3927 30.5948 35.2881 31.4446 35.2881C33.463 35.2881 34.9503 35.7064 35.9064 36.543C36.8624 37.3796 37.2874 38.6346 37.2874 40.3078V45.7458C37.1811 46.3733 37.2874 46.687 37.4998 47.0007ZM33.0381 45.955V43.4451H31.9758C31.0197 43.4451 30.2761 43.6543 29.8511 43.968C29.4262 44.2817 29.1075 44.8046 29.1075 45.5367C29.1075 46.0596 29.2137 46.5824 29.5324 46.8962C29.8511 47.2099 30.2761 47.3145 30.8072 47.3145C31.7633 47.3145 32.5069 46.8962 33.0381 45.955Z" fill="#292929"/>
<path d="M41.4304 49.3011C40.6868 48.569 40.3681 47.6278 40.3681 46.2683V30.1634L44.6173 29.7451V46.1638C44.6173 46.7912 44.8298 47.0004 45.361 47.0004C45.5734 47.0004 45.8921 47.0004 46.1046 46.8958L46.9545 49.824C46.2108 50.1377 45.361 50.3469 44.4049 50.3469C43.0239 50.3469 42.0678 50.0331 41.4304 49.3011Z" fill="#292929"/>
<path d="M59.7023 37.2751C60.9771 38.6346 61.6144 40.4124 61.6144 42.8177C61.6144 44.2817 61.2957 45.6412 60.7646 46.7916C60.2334 47.9419 59.3836 48.7786 58.3213 49.406C57.2589 50.0335 55.9842 50.3472 54.6031 50.3472C52.3723 50.3472 50.6726 49.7198 49.504 48.3603C48.3355 47.0007 47.5918 45.2229 47.5918 42.8177C47.5918 41.3536 47.9105 39.9941 48.4417 38.8437C48.9729 37.6934 49.8227 36.8567 50.885 36.2293C51.9473 35.6018 53.2221 35.2881 54.6031 35.2881C56.7278 35.2881 58.4275 36.0201 59.7023 37.2751ZM52.5847 39.4712C52.1598 40.2032 51.9473 41.3536 51.9473 42.8177C51.9473 44.3863 52.1598 45.5367 52.5847 46.1641C53.0097 46.8962 53.6471 47.2099 54.4969 47.2099C55.3468 47.2099 55.9842 46.8962 56.4091 46.1641C56.834 45.4321 57.0465 44.2817 57.0465 42.8177C57.0465 41.249 56.834 40.0986 56.4091 39.4712C55.9842 38.7391 55.3468 38.4254 54.4969 38.4254C53.6471 38.4254 53.0097 38.7391 52.5847 39.4712Z" fill="#292929"/>
<path d="M77.3367 36.6473C76.3806 37.0656 74.9996 37.1701 73.1937 37.1701C74.1498 37.5885 74.7872 38.0068 75.2121 38.6342C75.637 39.1571 75.8495 39.8892 75.8495 40.8304C75.8495 41.7716 75.637 42.5036 75.1059 43.2356C74.5747 43.9677 73.9373 44.4906 72.9812 44.9089C72.0251 45.3272 70.9628 45.5363 69.7943 45.5363C69.2631 45.5363 68.6257 45.4318 68.0946 45.3272C67.9883 45.4318 67.8821 45.5363 67.7759 45.6409C67.6696 45.7455 67.6696 45.9546 67.6696 46.0592C67.6696 46.373 67.7759 46.5821 67.9883 46.6867C68.2008 46.7913 68.6257 46.8958 69.2631 46.8958H71.3877C72.4501 46.8958 73.4062 47.105 74.256 47.4187C75.1059 47.7325 75.7432 48.2553 76.1682 48.8828C76.5931 49.5103 76.8056 50.2423 76.8056 50.9744C76.8056 52.4384 76.1682 53.5888 74.8934 54.4254C73.6186 55.262 71.7064 55.6803 69.2631 55.6803C67.5634 55.6803 66.1824 55.4712 65.1201 55.1575C64.164 54.8437 63.4204 54.3208 62.9954 53.5888C62.5705 52.9613 62.358 52.1247 62.358 51.0789H66.1824C66.1824 51.4973 66.2886 51.811 66.3949 52.1247C66.6073 52.3339 66.926 52.543 67.3509 52.6476C67.7759 52.7522 68.4133 52.8568 69.2631 52.8568C70.4317 52.8568 71.2815 52.7522 71.7064 52.4384C72.1314 52.1247 72.3438 51.811 72.3438 51.2881C72.3438 50.8698 72.1314 50.5561 71.8127 50.2423C71.494 50.0332 70.9628 49.824 70.3254 49.824H68.2008C66.7135 49.824 65.6512 49.5103 64.9076 48.9874C64.164 48.4645 63.8453 47.837 63.8453 47.0004C63.8453 46.4775 63.9515 45.9546 64.2702 45.5363C64.5889 45.0135 65.0138 44.5951 65.545 44.2814C64.6951 43.7585 63.9515 43.2356 63.6328 42.6082C63.3141 41.9807 62.9954 41.1441 62.9954 40.2029C62.9954 38.6342 63.5266 37.3793 64.6951 36.4381C65.8637 35.4969 67.3509 35.0786 69.2631 35.0786C70.7504 35.0786 71.9189 34.974 72.875 34.6603C73.8311 34.3466 74.8934 33.8237 75.9557 33.3008L77.3367 36.6473ZM68.0946 38.7388C67.6696 39.1571 67.5634 39.68 67.5634 40.412C67.5634 41.1441 67.7759 41.7716 68.0946 42.1899C68.5195 42.6082 69.0506 42.8173 69.688 42.8173C70.4317 42.8173 70.9628 42.6082 71.2815 42.1899C71.6002 41.7716 71.8127 41.1441 71.8127 40.3075C71.8127 38.7388 71.0691 38.0068 69.688 38.0068C68.9444 38.1113 68.4133 38.3205 68.0946 38.7388Z" fill="#292929"/>
<path d="M91.1469 49.9295H87.4288L87.2163 48.1517C86.154 49.6157 84.773 50.3478 82.8608 50.3478C81.586 50.3478 80.5237 49.9295 79.8863 49.1974C79.2489 48.4654 78.824 47.315 78.824 45.9555V35.8115H83.0733V45.4326C83.0733 46.1647 83.1795 46.583 83.3919 46.8967C83.6044 47.2105 83.9231 47.315 84.4543 47.315C85.3041 47.315 86.154 46.7922 86.7914 45.6418V35.8115H91.0406V49.9295H91.1469Z" fill="#292929"/>
<path d="M106.869 44.0726H97.9457C98.0519 45.2229 98.4769 46.0596 99.008 46.5824C99.5392 47.1053 100.283 47.3145 101.239 47.3145C101.77 47.3145 102.407 47.2099 102.939 47.0007C103.47 46.7916 104.107 46.4779 104.745 46.0596L106.55 48.3603C104.851 49.7198 103.045 50.3472 100.92 50.3472C98.5831 50.3472 96.7772 49.7198 95.6086 48.3603C94.4401 47.0007 93.6964 45.2229 93.6964 42.9222C93.6964 41.4582 93.9089 40.2032 94.4401 39.0529C94.9712 37.9025 95.7148 36.9613 96.7772 36.3339C97.7333 35.7064 99.008 35.2881 100.389 35.2881C102.407 35.2881 104.107 35.9156 105.276 37.1705C106.444 38.4254 107.082 40.2032 107.082 42.5039C106.975 43.1314 106.975 43.6543 106.869 44.0726ZM102.832 41.3536C102.832 39.1575 101.983 38.1117 100.495 38.1117C99.7517 38.1117 99.2205 38.4254 98.7956 38.9483C98.3706 39.4712 98.1582 40.3078 98.052 41.5627H102.832V41.3536Z" fill="#292929"/>
</g>
</g>
<defs>
<clipPath id="clip0">
<rect x="-148" y="-20" width="1920" height="3287" fill="white"/>
</clipPath>
</defs>
</svg>
