<svg width="127" height="79" viewBox="0 0 127 79" fill="none" xmlns="http://www.w3.org/2000/svg">
<path d="M9.69466 74.1818C9.69466 76.6748 7.75573 78.6137 5.26282 78.6137C2.76991 78.6137 0.830978 76.6748 0.830978 74.1818C0.830978 71.6889 2.76991 69.75 5.26282 69.75C7.75573 69.75 9.69466 71.8274 9.69466 74.1818Z" fill="white"/>
<path d="M22.5747 74.1818C22.5747 76.6748 20.6358 78.6137 18.1429 78.6137C15.6499 78.6137 13.8495 76.6748 13.8495 74.1818C13.8495 71.6889 15.7884 69.75 18.2813 69.75C20.7743 69.75 22.5747 71.8274 22.5747 74.1818Z" fill="white"/>
<path d="M35.5932 74.1818C35.5932 76.6748 33.6543 78.6137 31.1614 78.6137C28.6685 78.6137 26.7295 76.6748 26.7295 74.1818C26.7295 71.6889 28.6685 69.75 31.1614 69.75C33.6543 69.75 35.5932 71.8274 35.5932 74.1818Z" fill="white"/>
<path d="M17.4504 5.90369L14.819 8.67359C13.988 8.11961 13.2955 7.70413 12.7415 7.42714C12.1876 7.01165 11.3566 6.87316 10.5256 6.87316C8.86369 6.87316 7.61723 7.56563 6.64776 8.81209C5.6783 10.0585 5.26281 11.9975 5.26281 14.4904C5.26281 17.2603 5.6783 19.1992 6.37077 20.3072C7.06325 21.4151 8.17121 21.9691 9.69466 21.9691C10.8026 21.9691 11.7721 21.6921 12.6031 21.2766V16.4293H9.83315L9.41767 12.9669H17.7274V23.6311C16.6194 24.3235 15.373 24.8775 13.988 25.293C12.6031 25.7085 11.3566 25.847 9.97165 25.847C6.64776 25.847 4.29335 24.8775 2.63141 22.9386C0.830971 20.9997 0 18.2298 0 14.4904C0 12.136 0.415485 10.0585 1.38495 8.3966C2.35442 6.73466 3.46238 5.34971 5.12432 4.51874C6.64776 3.68777 8.4482 3.13379 10.3871 3.13379C13.157 3.27228 15.5115 4.10325 17.4504 5.90369Z" fill="white"/>
<path d="M34.3468 21.8313C34.4853 22.1083 34.7622 22.3853 35.1777 22.5238L34.2083 25.7092C33.2388 25.5707 32.4078 25.4322 31.7154 25.0167C31.0229 24.6012 30.6074 24.0472 30.1919 23.3548C29.0839 25.0167 27.422 25.8477 25.2061 25.8477C23.5441 25.8477 22.2977 25.4322 21.3282 24.4627C20.3588 23.4932 19.8048 22.2468 19.8048 20.7233C19.8048 18.9229 20.4973 17.538 21.7437 16.5685C23.1287 15.599 24.9291 15.1835 27.5605 15.1835H29.2224V14.4911C29.2224 13.5216 29.084 12.8291 28.6685 12.4136C28.253 11.9982 27.5605 11.8597 26.4525 11.8597C25.8986 11.8597 25.2061 11.9982 24.5136 12.1367C23.6826 12.2751 22.9902 12.5521 22.1592 12.8291L21.0512 9.64374C22.0207 9.22825 23.1287 8.95126 24.2366 8.67427C25.3446 8.39728 26.314 8.25879 27.2835 8.25879C29.6379 8.25879 31.4384 8.81277 32.5463 9.78223C33.6543 10.7517 34.2083 12.2751 34.2083 14.2141V20.5849C34.0698 21.1388 34.2083 21.5543 34.3468 21.8313ZM29.3609 20.7233V17.8149H28.1145C27.0065 17.8149 26.1756 17.9534 25.6216 18.3689C25.0676 18.7844 24.7906 19.3384 24.7906 20.1694C24.7906 20.8618 24.9291 21.4158 25.3446 21.6928C25.6216 22.1083 26.1756 22.2468 26.7295 22.2468C27.8375 22.3853 28.6685 21.8313 29.3609 20.7233Z" fill="white"/>
<path d="M53.0436 9.78136C51.9357 10.1968 50.4122 10.4738 48.3348 10.4738C49.4427 10.8893 50.1352 11.4433 50.6892 12.1358C51.2432 12.8283 51.3817 13.6592 51.3817 14.7672C51.3817 15.8751 51.1047 16.7061 50.5507 17.6756C49.9967 18.5065 49.1658 19.199 48.1963 19.6145C47.0883 20.03 45.9804 20.307 44.4569 20.307C43.7644 20.307 43.2105 20.307 42.518 20.1685C42.3795 20.307 42.241 20.4455 42.1025 20.584C41.964 20.7225 41.964 20.9995 41.964 21.138C41.964 21.4149 42.1025 21.6919 42.3795 21.8304C42.6565 21.9689 43.072 22.1074 43.7644 22.1074H46.2574C47.5038 22.1074 48.6118 22.2459 49.5812 22.6614C50.5507 23.0769 51.2432 23.6309 51.7972 24.3233C52.3511 25.0158 52.6281 25.8468 52.6281 26.8163C52.6281 28.4782 51.9357 29.8631 50.4122 30.8326C48.8888 31.8021 46.8113 32.2176 44.0414 32.2176C41.964 32.2176 40.4406 31.9406 39.3326 31.5251C38.2246 31.1096 37.3937 30.5556 36.8397 29.7246C36.4242 28.8937 36.1472 27.9242 36.1472 26.8163H40.5791C40.5791 27.3702 40.7176 27.6472 40.856 28.0627C40.9945 28.3397 41.41 28.6167 41.964 28.7552C42.518 28.8937 43.2105 29.0322 44.1799 29.0322C45.5649 29.0322 46.3959 28.8937 46.9498 28.6167C47.5038 28.3397 47.7808 27.7857 47.7808 27.2317C47.7808 26.6778 47.6423 26.4008 47.2268 25.9853C46.8113 25.7083 46.2574 25.5698 45.4264 25.5698H42.9335C41.2715 25.5698 40.0251 25.2928 39.0556 24.6003C38.2246 24.0464 37.8092 23.2154 37.8092 22.2459C37.8092 21.6919 37.9477 20.9995 38.3631 20.4455C38.7786 19.8915 39.1941 19.3375 39.7481 19.0605C38.7786 18.5065 37.9477 17.8141 37.5322 17.1216C37.1167 16.4291 36.8397 15.4597 36.8397 14.3517C36.8397 12.5513 37.5322 11.0278 38.7786 9.91985C40.1636 8.81189 41.8255 8.25791 44.0414 8.25791C45.7034 8.25791 47.0883 8.11942 48.1963 7.70393C49.3042 7.28845 50.5507 6.73447 51.7972 6.04199L53.0436 9.78136ZM42.518 12.2743C42.1025 12.8283 41.8255 13.3822 41.8255 14.2132C41.8255 15.0442 42.1025 15.7366 42.518 16.2906C42.9335 16.8446 43.626 16.9831 44.3184 16.9831C45.1494 16.9831 45.7034 16.7061 46.1189 16.2906C46.5343 15.8751 46.8113 15.0442 46.8113 14.0747C46.8113 12.2743 45.9804 11.4433 44.3184 11.4433C43.4875 11.4433 42.9335 11.7203 42.518 12.2743Z" fill="white"/>
<path d="M68.4166 21.8305C68.5551 22.1075 68.832 22.3845 69.2475 22.523L68.2781 25.7084C67.3086 25.5699 66.4776 25.4314 65.7851 25.0159C65.0927 24.6004 64.6772 24.0464 64.2617 23.354C63.1537 25.0159 61.4918 25.8469 59.2759 25.8469C57.6139 25.8469 56.3675 25.4314 55.398 24.4619C54.4286 23.4924 53.8746 22.246 53.8746 20.7225C53.8746 18.9221 54.567 17.5372 55.8135 16.5677C57.1985 15.5982 58.9989 15.1827 61.6303 15.1827H63.2922V14.4903C63.2922 13.5208 63.1537 12.8283 62.7383 12.4128C62.3228 11.9974 61.6303 11.8589 60.5223 11.8589C59.9684 11.8589 59.2759 11.9974 58.5834 12.1359C57.7524 12.2743 57.06 12.5513 56.229 12.8283L55.121 9.64294C56.0905 9.22746 57.1985 8.95046 58.3064 8.67347C59.4144 8.53498 60.3838 8.39648 61.3533 8.39648C63.7077 8.39648 65.5082 8.95046 66.6161 9.91993C67.7241 10.8894 68.2781 12.4128 68.2781 14.3518V20.7225C68.1396 21.138 68.2781 21.5535 68.4166 21.8305ZM63.2922 20.7225V17.8142H62.0458C60.9378 17.8142 60.1068 17.9526 59.5529 18.3681C58.9989 18.7836 58.7219 19.3376 58.7219 20.1686C58.7219 20.861 58.8604 21.415 59.2759 21.692C59.5529 22.1075 60.1068 22.246 60.6608 22.246C61.7688 22.3845 62.7383 21.8305 63.2922 20.7225Z" fill="white"/>
<path d="M85.8669 25.2924H81.5736L81.2966 23.215C80.0502 25.0154 78.3882 25.8464 76.3108 25.8464C74.7873 25.8464 73.6794 25.4309 72.8484 24.4615C72.0174 23.492 71.7404 22.2455 71.7404 20.5836V8.81152H76.5878V20.0296C76.5878 20.8606 76.7263 21.4146 77.0033 21.6916C77.2803 21.9686 77.6957 22.107 78.2497 22.107C79.2192 22.107 80.1887 21.4146 80.8811 20.1681V8.81152H85.8669V25.2924Z" fill="white"/>
<path d="M101.378 8.81152V12.2739L94.0382 21.5531H101.655L101.101 25.2924H88.2214V21.8301L95.8386 12.5509H88.9139V8.81152H101.378Z" fill="white"/>
<path d="M108.719 0.917885C109.273 1.47186 109.55 2.02585 109.55 2.85682C109.55 3.68779 109.273 4.38026 108.719 4.79575C108.165 5.48822 107.472 5.62672 106.503 5.62672C105.672 5.62672 104.979 5.34973 104.425 4.79575C103.871 4.38026 103.733 3.68779 103.733 2.85682C103.733 2.02585 104.01 1.33337 104.564 0.917885C104.979 0.363904 105.672 0.0869141 106.503 0.0869141C107.472 0.0869141 108.165 0.363904 108.719 0.917885ZM108.996 25.293H104.01V8.81211H108.996V25.293Z" fill="white"/>
<path d="M126.169 21.8313C126.308 22.1083 126.585 22.3853 127 22.5238L126.031 25.7092C125.061 25.5707 124.23 25.4322 123.538 25.0167C122.845 24.6012 122.43 24.0472 122.014 23.3548C120.906 25.0167 119.244 25.8477 117.028 25.8477C115.366 25.8477 114.12 25.4322 113.15 24.4627C112.181 23.4932 111.627 22.2468 111.627 20.7233C111.627 18.9229 112.32 17.538 113.566 16.5685C114.812 15.599 116.751 15.1835 119.383 15.1835H121.045V14.4911C121.045 13.5216 120.906 12.8291 120.491 12.4136C120.075 11.9982 119.383 11.8597 118.275 11.8597C117.721 11.8597 117.028 11.9982 116.336 12.1367C115.505 12.2751 114.812 12.5521 113.981 12.8291L112.874 9.64374C113.981 9.22825 114.951 8.95126 116.059 8.67427C117.028 8.39728 118.136 8.25879 119.106 8.25879C121.46 8.25879 123.261 8.81277 124.369 9.78223C125.477 10.7517 126.031 12.2751 126.031 14.2141V20.5849C125.892 21.1388 126.031 21.5543 126.169 21.8313ZM121.045 20.7233V17.8149H119.798C118.69 17.8149 117.859 17.9534 117.305 18.3689C116.751 18.7844 116.474 19.3384 116.474 20.1694C116.474 20.8618 116.613 21.4158 117.028 21.6928C117.305 22.1083 117.859 22.2468 118.413 22.2468C119.521 22.3853 120.491 21.8313 121.045 20.7233Z" fill="white"/>
<path d="M15.096 38.4501C17.1734 39.9736 18.1429 42.7435 18.1429 46.8983C18.1429 50.9147 17.1734 53.6846 15.096 55.3465C13.157 57.0085 10.5256 57.8394 7.34024 57.8394H0.969467V36.0957H6.92476C10.3871 36.0957 13.157 36.9267 15.096 38.4501ZM6.09379 39.8351V53.9616H7.75573C9.41767 53.9616 10.6641 53.4076 11.6336 52.4381C12.4646 51.3302 12.88 49.5297 12.88 46.7598C12.88 44.9594 12.6031 43.4359 12.1876 42.4665C11.7721 41.497 11.2181 40.8045 10.3871 40.3891C9.69466 39.9736 8.72519 39.8351 7.61723 39.8351H6.09379Z" fill="white"/>
<path d="M25.6216 33.1864C26.1756 33.7404 26.4526 34.4329 26.4526 35.1254C26.4526 35.9563 26.1756 36.6488 25.6216 37.2028C25.0676 37.7568 24.3751 38.0338 23.5442 38.0338C22.7132 38.0338 22.0207 37.7568 21.4667 37.2028C20.9127 36.6488 20.6358 35.9563 20.6358 35.1254C20.6358 34.2944 20.9127 33.6019 21.4667 33.1864C22.0207 32.6325 22.7132 32.3555 23.5442 32.3555C24.3751 32.494 25.0676 32.771 25.6216 33.1864ZM26.0371 57.7001H21.1897V41.2192H26.0371V57.7001Z" fill="white"/>
<path d="M43.072 54.2387C43.2105 54.5157 43.4875 54.7927 43.903 54.9312L42.9335 58.1166C41.964 57.9781 41.1331 57.8396 40.4406 57.4241C39.7481 57.0086 39.3326 56.4546 38.9171 55.7622C37.8092 57.4241 36.1472 58.2551 33.9313 58.2551C32.2694 58.2551 31.0229 57.8396 30.0534 56.8701C29.084 55.9007 28.53 54.6542 28.53 53.1307C28.53 51.3303 29.2225 49.9454 30.4689 48.9759C31.8539 48.0064 33.6543 47.5909 36.2857 47.5909H37.9477V46.8985C37.9477 45.929 37.8092 45.2365 37.3937 44.821C36.9782 44.4056 36.2857 44.2671 35.1778 44.2671C34.6238 44.2671 33.9313 44.4056 33.2388 44.5441C32.4079 44.6825 31.7154 44.9595 30.8844 45.2365L29.7765 42.0511C30.7459 41.6357 31.8539 41.3587 32.9618 41.0817C34.0698 40.9432 35.0393 40.8047 36.0087 40.8047C38.3631 40.8047 40.1636 41.3587 41.2715 42.3281C42.3795 43.2976 42.9335 44.821 42.9335 46.76V53.1307C42.9335 53.5462 42.9335 53.9617 43.072 54.2387ZM38.0862 53.1307V50.2224H36.8397C35.7317 50.2224 34.9008 50.3608 34.3468 50.7763C33.7928 51.1918 33.5158 51.7458 33.5158 52.5768C33.5158 53.2692 33.6543 53.8232 34.0698 54.1002C34.3468 54.5157 34.9008 54.6542 35.4548 54.6542C36.5627 54.6542 37.3937 54.1002 38.0862 53.1307Z" fill="white"/>
<path d="M47.6423 57.0087C46.8113 56.1778 46.3959 55.0698 46.3959 53.5464V34.5725L51.3817 34.0186V53.2694C51.3817 53.9618 51.6587 54.2388 52.2127 54.2388C52.4896 54.2388 52.7666 54.2388 53.0436 54.1003L54.0131 57.5627C53.1821 57.9782 52.0742 58.1167 50.9662 58.1167C49.5812 58.2552 48.4733 57.8397 47.6423 57.0087Z" fill="white"/>
<path d="M68.8321 42.8818C70.217 44.4052 70.9095 46.6211 70.9095 49.391C70.9095 51.1915 70.6325 52.7149 69.94 53.9614C69.2476 55.3463 68.4166 56.3158 67.1701 57.0083C65.9237 57.7007 64.5387 58.1162 62.8768 58.1162C60.3839 58.1162 58.4449 57.2852 56.9215 55.7618C55.5365 54.2384 54.7056 52.0224 54.7056 49.2525C54.7056 47.4521 54.9826 45.9287 55.675 44.6822C56.3675 43.2972 57.1985 42.3278 58.4449 41.6353C59.6914 40.9428 61.0763 40.5273 62.7383 40.5273C65.3697 40.6658 67.3086 41.3583 68.8321 42.8818ZM60.6609 45.5132C60.1069 46.3441 59.9684 47.5906 59.9684 49.391C59.9684 51.1915 60.2454 52.5764 60.6609 53.4074C61.2148 54.2384 61.9073 54.6538 62.8768 54.6538C63.8462 54.6538 64.6772 54.2384 65.0927 53.4074C65.6467 52.5764 65.7852 51.33 65.7852 49.5295C65.7852 47.7291 65.5082 46.3441 65.0927 45.5132C64.5387 44.6822 63.8462 44.2667 62.8768 44.2667C61.9073 44.2667 61.0763 44.6822 60.6609 45.5132Z" fill="white"/>
<path d="M89.0524 42.1896C87.9444 42.605 86.4209 42.882 84.3435 42.882C85.4515 43.2975 86.1439 43.8515 86.6979 44.544C87.2519 45.2365 87.3904 46.0674 87.3904 47.1754C87.3904 48.2833 87.1134 49.1143 86.5594 50.0838C86.0055 50.9148 85.1745 51.6072 84.205 52.0227C83.0971 52.4382 81.9891 52.7152 80.4656 52.7152C79.7732 52.7152 79.2192 52.7152 78.5267 52.5767C78.3882 52.7152 78.2497 52.8537 78.1112 52.9922C77.9727 53.1307 77.9727 53.4077 77.9727 53.5462C77.9727 53.8231 78.1112 54.1001 78.3882 54.2386C78.6652 54.3771 79.0807 54.5156 79.7732 54.5156H82.2661C83.5125 54.5156 84.6205 54.6541 85.59 55.0696C86.5594 55.4851 87.2519 56.0391 87.8059 56.7315C88.3599 57.424 88.6369 58.255 88.6369 59.2245C88.6369 60.8864 87.9444 62.2713 86.4209 63.2408C84.8975 64.2103 82.8201 64.6258 80.0502 64.6258C77.9727 64.6258 76.4493 64.3488 75.3413 63.9333C74.2334 63.5178 73.4024 62.9638 72.8484 62.1329C72.4329 61.3019 72.1559 60.3324 72.1559 59.2245H76.5878C76.5878 59.7784 76.7263 60.0554 76.8648 60.4709C77.0033 60.7479 77.4188 61.0249 77.9727 61.1634C78.5267 61.3019 79.2192 61.4404 80.1887 61.4404C81.5736 61.4404 82.4046 61.3019 82.9586 61.0249C83.5125 60.7479 83.7895 60.1939 83.7895 59.6399C83.7895 59.086 83.651 58.809 83.2356 58.3935C82.8201 58.1165 82.2661 57.978 81.4351 57.978H78.9422C77.2803 57.978 76.0338 57.701 75.0643 57.0085C74.2334 56.4546 73.8179 55.6236 73.8179 54.6541C73.8179 54.1001 73.9564 53.4077 74.3719 52.8537C74.7874 52.2997 75.2028 51.7457 75.7568 51.4687C74.7874 50.9148 73.9564 50.2223 73.5409 49.5298C73.1254 48.8373 72.8484 47.8679 72.8484 46.7599C72.8484 44.9595 73.5409 43.436 74.7874 42.3281C76.1723 41.2201 77.8342 40.6661 80.0502 40.6661C81.7121 40.6661 83.0971 40.5276 84.205 40.1121C85.313 39.6966 86.5594 39.1427 87.8059 38.4502L89.0524 42.1896ZM78.3882 44.544C77.9727 45.098 77.6957 45.6519 77.6957 46.4829C77.6957 47.3139 77.9727 48.0064 78.3882 48.5603C78.8037 49.1143 79.4962 49.2528 80.1887 49.2528C81.0196 49.2528 81.5736 48.9758 81.9891 48.5603C82.4046 48.1449 82.6816 47.3139 82.6816 46.3444C82.6816 44.544 81.8506 43.713 80.1887 43.713C79.4962 43.8515 78.8037 44.1285 78.3882 44.544Z" fill="white"/>
<path d="M104.979 57.7013H100.686L100.409 55.6238C99.301 57.2858 97.6391 58.2552 95.5616 58.2552C94.0382 58.2552 92.9302 57.8398 92.0993 56.8703C91.2683 55.9008 90.9913 54.6544 90.9913 52.9924V41.0819H95.8386V52.3C95.8386 53.1309 95.9771 53.6849 96.2541 53.9619C96.5311 54.2389 96.9466 54.3774 97.5006 54.3774C98.47 54.3774 99.4395 53.6849 100.132 52.4385V40.9434H105.118V57.7013H104.979Z" fill="white"/>
<path d="M123.122 50.9147H112.874C113.012 52.2996 113.427 53.2691 114.12 53.823C114.812 54.377 115.643 54.654 116.751 54.654C117.444 54.654 117.998 54.5155 118.69 54.2385C119.244 53.9615 119.937 53.6846 120.768 53.1306L122.845 55.9005C120.906 57.4239 118.829 58.2549 116.336 58.2549C113.704 58.2549 111.627 57.4239 110.242 55.9005C108.857 54.377 108.026 52.1611 108.026 49.5297C108.026 47.8678 108.303 46.3443 108.996 44.9594C109.55 43.5744 110.519 42.6049 111.627 41.774C112.735 40.943 114.12 40.666 115.782 40.666C118.136 40.666 120.075 41.3585 121.322 42.8819C122.707 44.4054 123.399 46.4828 123.399 49.1142C123.261 49.8067 123.122 50.3607 123.122 50.9147ZM118.413 47.7293C118.413 45.2364 117.444 43.9899 115.782 43.9899C114.951 43.9899 114.258 44.2669 113.843 44.9594C113.427 45.5133 113.151 46.6213 113.012 48.0063H118.552V47.7293H118.413Z" fill="white"/>
</svg>
