<svg width="14" height="15" viewBox="0 0 14 15" fill="none" xmlns="http://www.w3.org/2000/svg">
<path d="M13.5269 11.1594L11.214 8.89108C11.6345 8.06622 11.9149 7.10389 11.9149 6.14156C11.9149 2.91087 9.25156 0.298828 5.95745 0.298828C2.66333 0.298828 0 2.91087 0 6.14156C0 9.37225 2.66333 11.9843 5.95745 11.9843C6.93867 11.9843 7.9199 11.7093 8.76095 11.2969L11.0738 13.5653C11.7747 14.2526 12.826 14.2526 13.5269 13.5653C14.1577 12.8779 14.1577 11.8468 13.5269 11.1594ZM5.95745 10.6095C3.43429 10.6095 1.40175 8.61613 1.40175 6.14156C1.40175 3.66699 3.43429 1.67359 5.95745 1.67359C8.4806 1.67359 10.5131 3.66699 10.5131 6.14156C10.5131 8.61613 8.4806 10.6095 5.95745 10.6095Z" fill="black"/>
</svg>
