<svg width="15" height="20" viewBox="0 0 15 20" fill="none" xmlns="http://www.w3.org/2000/svg">
<path d="M7.5 19.25L7.1 18.8C6.85 18.55 1 11.65 1 7.5C1 3.9 3.9 1 7.5 1C11.1 1 14 3.9 14 7.5C14 11.65 8.15 18.55 7.9 18.85L7.5 19.25ZM7.5 2C4.45 2 2 4.45 2 7.5C2 10.7 6.2 16.1 7.5 17.7C8.8 16.1 13 10.7 13 7.5C13 4.45 10.55 2 7.5 2Z" fill="#292929" stroke="#010101" stroke-width="0.7"/>
<path d="M7.5 10C6.1 10 5 8.9 5 7.5C5 6.1 6.1 5 7.5 5C8.9 5 10 6.1 10 7.5C10 8.9 8.9 10 7.5 10ZM7.5 6C6.65 6 6 6.65 6 7.5C6 8.35 6.65 9 7.5 9C8.35 9 9 8.35 9 7.5C9 6.65 8.35 6 7.5 6Z" fill="#292929" stroke="#010101" stroke-width="0.7"/>
</svg>
