<svg width="21" height="17" viewBox="0 0 21 17" fill="none" xmlns="http://www.w3.org/2000/svg">
<path d="M4 1H17C17.7956 1 18.5587 1.31607 19.1213 1.87868C19.6839 2.44129 20 3.20435 20 4V13C20 13.7956 19.6839 14.5587 19.1213 15.1213C18.5587 15.6839 17.7956 16 17 16H4C3.20435 16 2.44129 15.6839 1.87868 15.1213C1.31607 14.5587 1 13.7956 1 13V4C1 3.20435 1.31607 2.44129 1.87868 1.87868C2.44129 1.31607 3.20435 1 4 1ZM4 2C3.512 2 3.064 2.175 2.717 2.466L10.5 7.52L18.283 2.466C17.9236 2.16441 17.4692 1.99938 17 2H4ZM10.5 8.712L2.134 3.28C2.04529 3.50968 1.99985 3.75379 2 4V13C2 13.5304 2.21071 14.0391 2.58579 14.4142C2.96086 14.7893 3.46957 15 4 15H17C17.5304 15 18.0391 14.7893 18.4142 14.4142C18.7893 14.0391 19 13.5304 19 13V4C19 3.746 18.953 3.503 18.866 3.28L10.5 8.711V8.712Z" fill="#292929" stroke="#010101" stroke-width="0.7"/>
</svg>
