<svg width="340" height="211" viewBox="0 0 340 211" fill="none" xmlns="http://www.w3.org/2000/svg">
<g opacity="0.05">
<path d="M25.8778 198.497C25.8778 205.048 20.6369 210.289 14.0859 210.289C7.5348 210.289 2.29395 205.048 2.29395 198.497C2.29395 191.946 7.5348 186.705 14.0859 186.705C20.6369 186.705 25.8778 191.946 25.8778 198.497Z" fill="#292929"/>
<path d="M60.5968 198.497C60.5968 205.048 55.3559 210.289 48.8049 210.289C42.2538 210.289 37.0129 205.048 37.0129 198.497C37.0129 191.946 42.2538 186.705 48.8049 186.705C55.3559 186.705 60.5968 191.946 60.5968 198.497Z" fill="#292929"/>
<path d="M95.3197 198.497C95.3197 205.048 90.0788 210.289 83.5278 210.289C76.9767 210.289 71.7358 205.048 71.7358 198.497C71.7358 191.946 76.9767 186.705 83.5278 186.705C90.0788 186.705 95.3197 191.946 95.3197 198.497Z" fill="#292929"/>
<path d="M46.8402 15.3947L39.9615 22.6008C37.9962 20.9631 36.0309 19.9804 34.3931 19.3253C32.4278 18.6702 30.4625 18.3426 28.1696 18.3426C23.9114 18.3426 20.6359 19.9804 18.0154 23.2559C15.395 26.5315 14.0848 31.7723 14.0848 38.651C14.0848 46.1847 15.0675 51.4256 17.0328 54.3735C18.9981 57.3215 21.9461 58.9593 26.2043 58.9593C29.1523 58.9593 31.7727 58.3042 34.0656 56.994V43.8918H26.5318L25.2216 34.3928H47.1677V62.8899C44.2197 64.8553 40.9442 66.493 37.3411 67.4757C33.738 68.4583 30.1349 69.1134 26.5318 69.1134C17.6879 69.1134 11.1368 66.493 6.55107 61.2522C1.96532 56.0113 0 48.4776 0 38.651C0 32.4274 1.31021 26.859 3.60309 22.2733C5.89597 17.6875 9.1715 14.412 13.4297 11.7916C17.6879 9.49869 22.2736 8.18848 27.5145 8.18848C35.0482 8.51603 41.5993 10.8089 46.8402 15.3947Z" fill="#292929"/>
<path d="M92.042 58.3047C92.3695 58.9598 93.3522 59.615 94.3348 59.9425L91.7144 68.7865C89.094 68.4589 86.8011 67.8038 85.1633 67.1487C83.5256 66.166 82.2153 64.5283 81.2327 62.5629C78.2847 67.1487 74.0265 69.114 67.803 69.114C63.5448 69.114 59.9417 67.8038 57.3213 65.1834C54.7008 62.5629 53.3906 59.2874 53.3906 55.0292C53.3906 50.1159 55.0284 46.5128 58.6315 43.8924C62.2346 41.272 67.4754 39.9617 74.0265 39.9617H78.6123V37.9964C78.6123 35.376 77.9571 33.7382 76.9745 32.7556C75.9918 31.7729 74.0265 31.4453 71.0785 31.4453C69.7683 31.4453 67.803 31.7729 65.8377 32.1005C63.8723 32.428 61.5795 33.0831 59.6141 33.7382L56.6662 25.2218C59.2866 24.2392 62.2346 23.2565 65.1826 22.929C68.1305 22.2738 70.751 21.9463 73.3714 21.9463C79.5949 21.9463 84.1807 23.2565 87.1287 25.8769C90.0766 28.4974 91.3868 32.428 91.3868 37.6689V54.7017C91.3868 56.3394 91.7144 57.6496 92.042 58.3047ZM78.6123 55.3568V47.4955H75.3367C72.3887 47.4955 70.0959 48.1506 68.7856 49.1332C67.4754 50.1159 66.4928 51.7537 66.4928 54.0465C66.4928 55.6843 66.8203 57.3221 67.803 58.3047C68.7857 59.2874 70.0959 59.615 71.7336 59.615C74.3541 59.615 76.9745 58.3047 78.6123 55.3568Z" fill="#292929"/>
<path d="M142.157 25.8772C139.209 27.1874 134.951 27.515 129.383 27.515C132.331 28.8252 134.296 30.1354 135.606 32.1007C136.917 33.7385 137.572 36.0314 137.572 38.9794C137.572 41.9273 136.917 44.2202 135.279 46.5131C133.641 48.806 131.676 50.4437 128.728 51.754C125.78 53.0642 122.504 53.7193 118.901 53.7193C117.263 53.7193 115.298 53.3917 113.66 53.0642C113.333 53.3917 113.005 53.7193 112.678 54.0468C112.35 54.3744 112.35 55.0295 112.35 55.357C112.35 56.3397 112.678 56.9948 113.333 57.3224C113.988 57.6499 115.298 57.9775 117.263 57.9775H123.814C127.09 57.9775 130.038 58.6326 132.658 59.6152C135.279 60.5979 137.244 62.2357 138.554 64.201C139.865 66.1663 140.52 68.4592 140.52 70.7521C140.52 75.3378 138.554 78.9409 134.624 81.5613C130.693 84.1818 124.797 85.492 117.263 85.492C112.023 85.492 107.764 84.8369 104.489 83.8542C101.213 82.8716 99.2479 81.2338 97.9377 78.9409C96.6275 76.9756 95.9724 74.3552 95.9724 71.0796H107.764C107.764 72.3898 108.092 73.3725 108.419 74.3552C109.075 75.0103 110.057 75.6654 111.367 75.9929C112.678 76.3205 114.643 76.648 117.263 76.648C120.866 76.648 123.487 76.3205 124.797 75.3378C126.107 74.3551 126.762 73.3725 126.762 71.7347C126.762 70.4245 126.107 69.4419 125.125 68.4592C124.142 67.8041 122.504 67.149 120.539 67.149H113.988C109.402 67.149 106.127 66.1663 103.834 64.5285C101.541 62.8908 100.558 60.9255 100.558 58.305C100.558 56.6673 100.886 55.0295 101.868 53.7193C102.851 52.0815 104.161 50.7713 105.799 49.7886C103.179 48.1509 100.886 46.5131 99.9031 44.5478C98.5928 42.5825 97.9377 39.962 97.9377 37.014C97.9377 32.1007 99.5755 28.1701 103.179 25.2221C106.782 22.2741 111.367 20.9639 117.263 20.9639C121.849 20.9639 125.452 20.6364 128.4 19.6537C131.348 18.671 134.624 17.0333 137.899 15.3955L142.157 25.8772ZM113.66 32.4283C112.35 33.7385 112.023 35.3763 112.023 37.6692C112.023 39.962 112.678 41.9273 113.66 43.2376C114.971 44.5478 116.608 45.2029 118.574 45.2029C120.866 45.2029 122.504 44.5478 123.487 43.2376C124.47 41.9273 125.125 39.962 125.125 37.3416C125.125 32.4283 122.832 30.1354 118.574 30.1354C116.608 30.463 114.971 31.1181 113.66 32.4283Z" fill="#292929"/>
<path d="M183.101 58.3047C183.429 58.9598 184.411 59.615 185.394 59.9425L182.774 68.7865C180.153 68.4589 177.86 67.8038 176.223 67.1487C174.585 66.166 173.275 64.5283 172.292 62.5629C169.344 67.1487 165.086 69.114 158.862 69.114C154.604 69.114 151.001 67.8038 148.381 65.1834C145.76 62.5629 144.45 59.2874 144.45 55.0292C144.45 50.1159 146.088 46.5128 149.691 43.8924C153.294 41.272 158.535 39.9617 165.086 39.9617H169.672V37.9964C169.672 35.376 169.016 33.7382 168.034 32.7556C167.051 31.7729 165.086 31.4453 162.138 31.4453C160.828 31.4453 158.862 31.7729 156.897 32.1005C154.932 32.428 152.639 33.0831 150.673 33.7382L147.398 25.2218C150.018 24.2392 152.966 23.2565 155.914 22.929C158.862 22.2738 161.483 21.9463 164.103 21.9463C170.327 21.9463 174.912 23.2565 177.86 25.8769C180.808 28.4974 182.119 32.428 182.119 37.6689V54.7017C182.446 56.3394 182.774 57.6496 183.101 58.3047ZM169.672 55.3568V47.4955H166.396C163.448 47.4955 161.155 48.1506 159.845 49.1332C158.535 50.1159 157.552 51.7537 157.552 54.0465C157.552 55.6843 157.88 57.3221 158.862 58.3047C159.845 59.2874 161.155 59.615 162.793 59.615C165.413 59.615 167.706 58.3047 169.672 55.3568Z" fill="#292929"/>
<path d="M229.615 67.4756H218.15L217.495 61.9072C214.22 66.4929 209.961 68.7858 204.065 68.7858C200.135 68.7858 196.859 67.4756 194.894 65.1827C192.929 62.8898 191.618 59.2868 191.618 55.0286V23.2559H204.721V53.3908C204.721 55.6837 205.048 56.9939 205.703 57.9765C206.358 58.9592 207.341 59.2868 208.979 59.2868C211.599 59.2868 214.22 57.649 216.185 54.0459V23.2559H229.287V67.4756H229.615Z" fill="#292929"/>
<path d="M271.542 23.2559V32.4274L251.562 57.649H271.87L270.887 67.4756H236.494V58.3041L256.475 33.0825H238.132V23.2559H271.542Z" fill="#292929"/>
<path d="M290.868 1.96532C292.178 3.27554 293.161 5.24086 293.161 7.20618C293.161 9.49905 292.506 11.1368 290.868 12.447C289.558 13.7573 287.592 14.4124 285.3 14.4124C283.007 14.4124 281.041 13.7573 279.731 12.447C278.421 11.1368 277.438 9.1715 277.438 7.20618C277.438 4.9133 278.093 3.27554 279.731 1.96532C281.041 0.655107 283.007 0 285.3 0C287.592 0 289.558 0.655107 290.868 1.96532ZM291.851 67.476H278.748V23.2563H291.851V67.476Z" fill="#292929"/>
<path d="M337.707 58.3047C338.034 58.9598 339.017 59.615 340 59.9425L337.379 68.7865C334.759 68.4589 332.466 67.8038 330.828 67.1487C329.19 66.166 327.88 64.5283 326.897 62.5629C323.949 67.1487 319.691 69.114 313.468 69.114C309.21 69.114 305.606 67.8038 302.986 65.1834C300.366 62.5629 299.055 59.2874 299.055 55.0292C299.055 50.1159 300.693 46.5128 304.296 43.8924C307.899 41.272 313.14 39.9617 319.691 39.9617H324.277V37.9964C324.277 35.376 323.622 33.7382 322.639 32.7556C321.657 31.7729 319.691 31.4453 316.743 31.4453C315.433 31.4453 313.468 31.7729 311.502 32.1005C309.537 32.428 307.244 33.0831 305.279 33.7382L302.331 25.2218C304.951 24.2392 307.899 23.2565 310.847 22.929C313.795 22.2738 316.416 21.9463 319.036 21.9463C325.26 21.9463 329.845 23.2565 332.793 25.8769C335.741 28.4974 337.052 32.428 337.052 37.6689V54.7017C337.052 56.3394 337.379 57.6496 337.707 58.3047ZM324.277 55.3568V47.4955H321.002C318.054 47.4955 315.761 48.1506 314.45 49.1332C313.14 50.1159 312.158 51.7537 312.158 54.0465C312.158 55.6843 312.485 57.3221 313.468 58.3047C314.45 59.2874 315.761 59.615 317.398 59.615C320.019 59.615 322.312 58.3047 324.277 55.3568Z" fill="#292929"/>
<path d="M40.6163 102.524C46.1847 106.455 48.8052 113.988 48.8052 125.125C48.8052 135.934 46.1847 143.468 40.9439 147.726C35.703 151.984 28.8244 154.277 20.308 154.277H2.62012V96.6279H18.6702C27.8417 96.6279 35.0479 98.5932 40.6163 102.524ZM16.3774 106.455V144.123H20.9631C25.5489 144.123 28.8244 142.813 31.1173 139.865C33.4102 136.917 34.7204 132.004 34.7204 124.798C34.7204 119.884 34.0653 115.954 33.0826 113.333C31.7724 110.713 30.4622 108.747 28.4969 107.765C26.5315 106.782 23.9111 106.127 20.9631 106.127H16.3774V106.455Z" fill="#292929"/>
<path d="M68.7881 88.7671C70.0983 90.0773 71.081 92.0426 71.081 94.0079C71.081 96.3008 70.4259 97.9386 68.7881 99.2488C67.4779 100.559 65.5126 101.214 63.2197 101.214C60.9268 101.214 58.9615 100.559 57.6513 99.2488C56.3411 97.9386 55.3584 95.9733 55.3584 94.0079C55.3584 91.7151 56.0135 90.0773 57.6513 88.7671C58.9615 87.4569 60.9268 86.8018 63.2197 86.8018C65.185 86.4742 67.1503 87.4569 68.7881 88.7671ZM69.7708 154.278H56.6686V110.058H69.7708V154.278Z" fill="#292929"/>
<path d="M115.627 145.106C115.954 145.761 116.937 146.416 117.92 146.744L115.299 155.26C112.679 154.933 110.386 154.277 108.748 153.622C107.11 152.64 105.8 151.002 104.817 149.037C101.869 153.622 97.6112 155.588 91.3877 155.588C87.1295 155.588 83.5264 154.277 80.906 151.657C78.2856 149.037 76.9753 145.761 76.9753 141.503C76.9753 136.59 78.6131 132.986 82.2162 130.366C85.8193 127.746 91.0601 126.435 97.6112 126.435H102.197V124.47C102.197 121.85 101.542 120.212 100.559 119.229C99.5765 118.247 97.6112 117.919 94.6632 117.919C93.353 117.919 91.3877 118.247 89.4224 118.574C87.4571 118.902 85.1642 119.557 83.1989 120.212L80.2509 111.695C82.8713 110.713 85.8193 109.73 88.7673 109.403C91.7153 108.747 94.3357 108.42 96.9561 108.42C103.18 108.42 107.765 109.73 110.713 112.351C113.661 114.971 114.972 118.902 114.972 124.143V141.175C114.644 143.141 114.972 144.123 115.627 145.106ZM101.869 141.83V133.969H98.5939C95.6459 133.969 93.353 134.624 92.0428 135.607C90.7326 136.59 89.7499 138.227 89.7499 140.52C89.7499 142.158 90.0775 143.796 91.0601 144.778C92.0428 145.761 93.353 146.089 94.9908 146.089C97.9388 146.089 100.232 144.778 101.869 141.83Z" fill="#292929"/>
<path d="M127.746 152.312C125.453 150.019 124.47 147.071 124.47 142.813V92.3698L137.572 91.0596V142.485C137.572 144.451 138.227 145.106 139.865 145.106C140.52 145.106 141.503 145.106 142.158 144.778L144.779 153.95C142.486 154.933 139.865 155.588 136.917 155.588C132.659 155.588 129.711 154.605 127.746 152.312Z" fill="#292929"/>
<path d="M184.084 114.643C188.015 118.902 189.98 124.47 189.98 132.004C189.98 136.59 188.997 140.848 187.36 144.451C185.722 148.054 183.101 150.674 179.826 152.64C176.55 154.605 172.62 155.588 168.361 155.588C161.483 155.588 156.242 153.622 152.639 149.364C149.036 145.106 146.743 139.538 146.743 132.004C146.743 127.418 147.726 123.16 149.363 119.557C151.001 115.954 153.622 113.333 156.897 111.368C160.173 109.403 164.103 108.42 168.361 108.42C174.913 108.42 180.153 110.713 184.084 114.643ZM162.138 121.522C160.828 123.815 160.173 127.418 160.173 132.004C160.173 136.917 160.828 140.52 162.138 142.486C163.448 144.778 165.413 145.761 168.034 145.761C170.654 145.761 172.62 144.778 173.93 142.486C175.24 140.193 175.895 136.59 175.895 132.004C175.895 127.09 175.24 123.487 173.93 121.522C172.62 119.229 170.654 118.247 168.034 118.247C165.413 118.247 163.448 119.229 162.138 121.522Z" fill="#292929"/>
<path d="M238.46 112.679C235.512 113.989 231.254 114.317 225.685 114.317C228.633 115.627 230.599 116.937 231.909 118.902C233.219 120.54 233.874 122.833 233.874 125.781C233.874 128.729 233.219 131.022 231.581 133.315C229.944 135.608 227.978 137.245 225.03 138.556C222.082 139.866 218.807 140.521 215.204 140.521C213.566 140.521 211.601 140.193 209.963 139.866C209.635 140.193 209.308 140.521 208.98 140.849C208.653 141.176 208.653 141.831 208.653 142.159C208.653 143.141 208.98 143.797 209.635 144.124C210.29 144.452 211.601 144.779 213.566 144.779H220.117C223.392 144.779 226.34 145.434 228.961 146.417C231.581 147.4 233.547 149.037 234.857 151.003C236.167 152.968 236.822 155.261 236.822 157.554C236.822 162.14 234.857 165.743 230.926 168.363C226.996 170.984 221.1 172.294 213.566 172.294C208.325 172.294 204.067 171.639 200.791 170.656C197.843 169.673 195.55 168.036 194.24 165.743C192.93 163.777 192.275 161.157 192.275 157.881H204.067C204.067 159.192 204.394 160.174 204.722 161.157C205.377 161.812 206.36 162.467 207.67 162.795C208.98 163.122 210.945 163.45 213.566 163.45C217.169 163.45 219.789 163.122 221.1 162.14C222.41 161.157 223.065 160.174 223.065 158.536C223.065 157.226 222.41 156.244 221.427 155.261C220.445 154.606 218.807 153.951 216.841 153.951H210.29C205.705 153.951 202.429 152.968 200.136 151.33C197.843 149.693 196.861 147.727 196.861 145.107C196.861 143.469 197.188 141.831 198.171 140.521C199.154 138.883 200.464 137.573 202.102 136.59C199.481 134.953 197.188 133.315 196.206 131.35C195.223 129.384 194.24 126.764 194.24 123.816C194.24 118.902 195.878 114.972 199.481 112.024C203.084 109.076 207.67 107.766 213.566 107.766C218.152 107.766 221.755 107.438 224.703 106.455C227.651 105.473 230.926 103.835 234.202 102.197L238.46 112.679ZM209.963 119.23C208.653 120.54 208.325 122.178 208.325 124.471C208.325 126.764 208.98 128.729 209.963 130.039C211.273 131.35 212.911 132.005 214.876 132.005C217.169 132.005 218.807 131.35 219.789 130.039C220.772 128.729 221.427 126.764 221.427 124.143C221.427 119.23 219.134 116.937 214.876 116.937C212.583 117.265 210.945 117.92 209.963 119.23Z" fill="#292929"/>
<path d="M281.042 154.277H269.577L268.922 148.709C265.647 153.295 261.388 155.588 255.492 155.588C251.562 155.588 248.286 154.277 246.321 151.984C244.356 149.692 243.045 146.089 243.045 141.83V110.058H256.148V140.193C256.148 142.485 256.475 143.796 257.13 144.778C257.785 145.761 258.768 146.089 260.406 146.089C263.026 146.089 265.647 144.451 267.612 140.848V110.058H280.714V154.277H281.042Z" fill="#292929"/>
<path d="M329.519 135.934H302.005C302.333 139.538 303.643 142.158 305.281 143.796C306.918 145.433 309.211 146.089 312.159 146.089C313.797 146.089 315.762 145.761 317.4 145.106C319.038 144.451 321.003 143.468 322.968 142.158L328.537 149.364C323.296 153.622 317.728 155.588 311.176 155.588C303.97 155.588 298.402 153.622 294.799 149.364C291.196 145.106 288.903 139.538 288.903 132.331C288.903 127.746 289.558 123.815 291.196 120.212C292.833 116.609 295.126 113.661 298.402 111.695C301.35 109.73 305.281 108.42 309.539 108.42C315.762 108.42 321.003 110.385 324.606 114.316C328.209 118.247 330.175 123.815 330.175 131.021C329.847 132.986 329.847 134.624 329.519 135.934ZM317.072 127.418C317.072 120.539 314.452 117.264 309.866 117.264C307.573 117.264 305.936 118.247 304.625 119.884C303.315 121.522 302.66 124.142 302.333 128.073H317.072V127.418Z" fill="#292929"/>
</g>
</svg>
