<svg width="17" height="16" viewBox="0 0 17 16" fill="none" xmlns="http://www.w3.org/2000/svg">
<path fill-rule="evenodd" clip-rule="evenodd" d="M5.33803 0H12.1952C14.7199 0 16.7666 2.0467 16.7666 4.57143V11.4286C16.7666 13.9533 14.7199 16 12.1952 16H5.33803C2.8133 16 0.766602 13.9533 0.766602 11.4286V4.57143C0.766602 2.0467 2.8133 0 5.33803 0ZM5.3378 1.52381H12.1949C13.8781 1.52381 15.2426 2.88827 15.2426 4.57143V11.4286C15.2426 13.1117 13.8781 14.4762 12.1949 14.4762H5.3378C3.65464 14.4762 2.29018 13.1117 2.29018 11.4286V4.57143C2.29018 2.88827 3.65464 1.52381 5.3378 1.52381ZM12.9568 8C12.9568 5.68566 11.0807 3.80952 8.76637 3.80952C6.48544 3.88825 4.65462 5.71907 4.57589 8C4.57589 10.3143 6.45203 12.1905 8.76637 12.1905C11.0807 12.1905 12.9568 10.3143 12.9568 8ZM8.82704 5.33333C9.51838 5.33293 10.1815 5.60728 10.6705 6.09599C11.1595 6.5847 11.4343 7.24771 11.4343 7.93905C11.3923 9.42081 10.1999 10.6116 8.71808 10.6514C8.02681 10.6518 7.36372 10.3775 6.87485 9.88873C6.38597 9.39999 6.1114 8.73699 6.11161 8.04572C6.1539 6.5644 7.34568 5.37396 8.82704 5.33333ZM13.7188 3.80952C13.7188 3.38874 13.3776 3.04762 12.9568 3.04762C12.5361 3.04762 12.1949 3.38874 12.1949 3.80952C12.1949 4.23031 12.5361 4.57143 12.9568 4.57143C13.3776 4.57143 13.7188 4.23031 13.7188 3.80952Z" fill="#8F9092"/>
</svg>
