<svg width="17" height="13" viewBox="0 0 17 13" fill="none" xmlns="http://www.w3.org/2000/svg">
<path d="M14.488 3.55589C14.4949 3.68541 14.498 3.82256 14.498 3.9597C14.4962 6.30573 13.5537 8.55307 11.8814 10.1985C10.2092 11.844 7.94695 12.7501 5.60119 12.714C3.90587 12.7155 2.24469 12.2375 0.80957 11.3349C1.05262 11.3578 1.30252 11.373 1.55471 11.373C2.96004 11.3752 4.32648 10.9117 5.44043 10.0549C4.10987 10.0365 2.93707 9.17713 2.51852 7.91398C2.71186 7.95353 2.90862 7.97394 3.10595 7.97494C3.38417 7.97466 3.66121 7.93881 3.93033 7.86827C2.48231 7.58822 1.43264 6.32594 1.42138 4.85113C1.41998 4.83847 1.41998 4.82569 1.42138 4.81303C1.85695 5.04903 2.34182 5.17951 2.837 5.19398C1.97092 4.63032 1.44816 3.66733 1.44728 2.63398C1.44604 2.08981 1.59188 1.55542 1.86938 1.08732C3.47151 3.01492 5.80925 4.18144 8.31281 4.30256C8.2615 4.07245 8.23595 3.83736 8.23662 3.6016C8.25045 1.88951 9.64831 0.512102 11.3604 0.523508C12.221 0.521289 13.0451 0.87085 13.6416 1.49113C14.342 1.35872 15.0143 1.10611 15.6286 0.74446C15.3945 1.46135 14.9069 2.06818 14.2572 2.45113C14.876 2.37657 15.4807 2.21231 16.0522 1.96351C15.6302 2.58354 15.1004 3.12286 14.488 3.55589Z" fill="#8F9092"/>
</svg>
